# xmcd
#
# Track frame offsets: 
#        150
#        11220
#        22555
#        35787
#        47500
#        57795
#        70550
#        81122
#        91812
#        106675
#        119475
#        134825
#        150525
#        165580
#        178637
#        193032
#
# Disc length: 2720 seconds
#
# Revision: 1
# Processed by: cddbd v1.4PL0 Copyright (c) Steve Scherf et al.
# Submitted via: ExactAudioCopy v0.90b4
#
DISCID=c50a9e10
DTITLE=George Jones - Double Pack (She Thinks I Still Care) - Disc 2
DYEAR=1900
DGENRE=Country
TTITLE0=Why Baby Why
TTITLE1=Tender Years
TTITLE2=The Window Up Above
TTITLE3=White Lightning
TTITLE4=The Race Is On
TTITLE5=She Thinks I Still Care
TTITLE6=Her Name Is...
TTITLE7=I'm Ragged But Right
TTITLE8=He Stopped Loving Her Today
TTITLE9=Still Doin' Time
TTITLE10=Shine On (Shine All Your Sweet Love On Me)
TTITLE11=Radio Lover
TTITLE12=I Always Get Lucky With You
TTITLE13=Tennessee Whiskey
TTITLE14=I'm Drinkin' Don't Kill Me (Her Memory Will)
TTITLE15=She's My Rock
EXTD=
EXTT0=
EXTT1=
EXTT2=
EXTT3=
EXTT4=
EXTT5=
EXTT6=
EXTT7=
EXTT8=
EXTT9=
EXTT10=
EXTT11=
EXTT12=
EXTT13=
EXTT14=
EXTT15=
PLAYORDER=
